<svg width="1000" height="723" viewBox="0 0 1000 723" fill="none" xmlns="http://www.w3.org/2000/svg">
<path d="M232.399 722.26C187.742 722.26 147.946 714.514 113.01 699.02C78.074 683.223 50.4291 659.983 30.0752 629.301C10.0251 598.314 0 559.733 0 513.557C0 474.672 7.13906 442.014 21.4172 415.584C35.6953 389.155 55.1378 367.889 79.7448 351.789C104.352 335.688 132.3 323.536 163.591 315.334C195.185 307.131 228.298 301.359 262.93 298.018C303.638 293.765 336.447 289.815 361.358 286.17C386.269 282.221 404.344 276.449 415.584 268.854C426.825 261.259 432.445 250.019 432.445 235.133V232.399C432.445 203.539 423.331 181.211 405.104 165.413C387.18 149.616 361.662 141.718 328.549 141.718C293.613 141.718 265.816 149.465 245.158 164.958C224.501 180.147 210.83 199.286 204.147 222.374L24.607 207.792C33.7207 165.262 51.6443 128.503 78.3778 97.5165C105.111 66.2261 139.591 42.2267 181.818 25.5183C224.349 8.50609 273.563 0 329.46 0C368.345 0 405.559 4.55683 441.103 13.6705C476.95 22.7842 508.696 36.9104 536.341 56.0492C564.29 75.1879 586.314 99.7949 602.415 129.87C618.516 159.642 626.566 195.337 626.566 236.956V709.045H442.47V611.985H437.002C425.761 633.857 410.724 653.148 391.889 669.856C373.054 686.261 350.422 699.172 323.992 708.59C297.562 717.703 267.031 722.26 232.399 722.26ZM287.993 588.289C316.549 588.289 341.764 582.669 363.636 571.429C385.509 559.885 402.673 544.391 415.129 524.949C427.584 505.506 433.812 483.481 433.812 458.874V384.598C427.736 388.547 419.382 392.193 408.749 395.534C398.42 398.572 386.724 401.458 373.661 404.192C360.598 406.623 347.536 408.901 334.473 411.028C321.41 412.85 309.562 414.521 298.929 416.04C276.145 419.382 256.247 424.698 239.234 431.989C222.222 439.28 209.007 449.153 199.59 461.609C190.172 473.76 185.464 488.95 185.464 507.177C185.464 533.607 195.033 553.809 214.172 567.783C233.614 581.454 258.221 588.289 287.993 588.289Z" fill="url(#paint0_linear_105_4)"/>
<path d="M890.636 720.893C860.561 720.893 834.738 710.26 813.169 688.995C791.904 667.426 781.271 641.604 781.271 611.529C781.271 581.757 791.904 556.239 813.169 534.974C834.738 513.709 860.561 503.076 890.636 503.076C919.8 503.076 945.318 513.709 967.191 534.974C989.064 556.239 1000 581.757 1000 611.529C1000 631.579 994.836 649.958 984.507 666.667C974.482 683.071 961.267 696.286 944.862 706.311C928.457 716.032 910.382 720.893 890.636 720.893Z" fill="url(#paint1_linear_105_4)"/>
<defs>
<linearGradient id="paint0_linear_105_4" x1="0" y1="0" x2="1000" y2="722" gradientUnits="userSpaceOnUse">
<stop stop-color="#EC4899"/>
<stop offset="1" stop-color="#D946EF"/>
</linearGradient>
<linearGradient id="paint1_linear_105_4" x1="0" y1="0" x2="1000" y2="722" gradientUnits="userSpaceOnUse">
<stop stop-color="#EC4899"/>
<stop offset="1" stop-color="#D946EF"/>
</linearGradient>
</defs>
</svg>
